/* XPM */
static char * extra_xpm[] = {
"16 16 73 1",
" 	c None",
".	c #959595",
"+	c #C8C8C8",
"@	c #777777",
"#	c #B9B9B9",
"$	c #F5F5F5",
"%	c #DADADA",
"&	c #393838",
"*	c #717171",
"=	c #F4F4F4",
"-	c #FCFCFC",
";	c #636363",
">	c #7E7E7E",
",	c #FBFBFB",
"'	c #F8F7F7",
")	c #7F7E7E",
"!	c #3B3B3B",
"~	c #676666",
"{	c #EFEFEF",
"]	c #BABABA",
"^	c #7E7D7D",
"/	c #666565",
"(	c #B8B8B8",
"_	c #9B9A9A",
":	c #3C3C3C",
"<	c #E6E5E5",
"[	c #E7E7E7",
"}	c #DEDDDD",
"|	c #D5D4D4",
"1	c #CBCBCB",
"2	c #C2C1C1",
"3	c #686868",
"4	c #9C7A25",
"5	c #9C9276",
"6	c #E7E6E6",
"7	c #C4C4C4",
"8	c #C8C7C7",
"9	c #CCCBCB",
"0	c #C3C2C2",
"a	c #A68229",
"b	c #E5C35E",
"c	c #DAB248",
"d	c #86754E",
"e	c #313131",
"f	c #282727",
"g	c #535252",
"h	c #464646",
"i	c #A8852C",
"j	c #E6C460",
"k	c #DFB546",
"l	c #D49D1C",
"m	c #674C0E",
"n	c #AB8830",
"o	c #E6C562",
"p	c #DEB241",
"q	c #D39C1B",
"r	c #654C10",
"s	c #AD8B33",
"t	c #E6C563",
"u	c #DDB03D",
"v	c #D39B1B",
"w	c #624A10",
"x	c #A48534",
"y	c #DCAD39",
"z	c #D29B1A",
"A	c #604811",
"B	c #AD944A",
"C	c #DBAB35",
"D	c #D29B1B",
"E	c #5D4712",
"F	c #423619",
"G	c #87671D",
"H	c #574312",
"                ",
"         .+@    ",
"        #$%&    ",
"       *=-;     ",
"       >,')  !~ ",
"        ={]^/(_ ",
"       :<[}|123 ",
"      4567890)  ",
"     abcdefgh   ",
"    ijklm       ",
"   nopqr        ",
"  stuvw         ",
" xtyzA          ",
" BCDE           ",
" FGH            ",
"                "};
