/* XPM */
static char * help_xpm[] = {
"17 17 25 1",
" 	c None",
".	c #000000",
"+	c #F0C56E",
"@	c #F1C875",
"#	c #F0CE84",
"$	c #F2C66D",
"%	c #F1C66E",
"&	c #EDC876",
"*	c #F1CA79",
"=	c #F1C770",
"-	c #F1C66D",
";	c #EACB84",
">	c #EDC775",
",	c #E8C574",
"'	c #2B2B2B",
")	c #EFCD83",
"!	c #212E1F",
"~	c #F1C772",
"{	c #CBDAC9",
"]	c #F0C56D",
"^	c #B7AD66",
"/	c #F1C56D",
"(	c #EBC46F",
"_	c #F1C771",
":	c #EFC56D",
"      .....      ",
"     .+@#$%.     ",
"    .&$*=$-;.    ",
"   .>%,...-$$'   ",
"    .)!   .-~.   ",
"    {.    .$].   ",
"         .-$^.   ",
"        .--/.    ",
"       .$-/.     ",
"      .(-].      ",
"      ._:.       ",
"      ....       ",
"                 ",
"       ..        ",
"      .$$.       ",
"      .$$.       ",
"       ..        "};
