/* XPM */
static char * next_xpm[] = {
"16 16 56 1",
"       c None",
".      c #000000",
"+      c #569A59",
"@      c #0A120A",
"#      c #228126",
"$      c #3F8342",
"%      c #09130A",
"&      c #2E9132",
"*      c #319335",
"=      c #448D47",
"-      c #09140A",
";      c #52AC55",
">      c #80C282",
",      c #5BB15E",
"'      c #319C35",
")      c #07880C",
"!      c #449447",
"~      c #09150A",
"{      c #008905",
"]      c #009405",
"^      c #07970C",
"/      c #31A935",
"(      c #449E47",
"_      c #09160A",
":      c #009705",
"<      c #00A305",
"[      c #07A60C",
"}      c #2AB22E",
"|      c #1B971E",
"1      c #041505",
"2      c #00A605",
"3      c #00B305",
"4      c #00AE05",
"5      c #008E04",
"6      c #007303",
"7      c #001100",
"8      c #00B405",
"9      c #00C205",
"0      c #00BD05",
"a      c #009604",
"b      c #006003",
"c      c #000D00",
"d      c #007003",
"e      c #004802",
"f      c #00A104",
"g      c #00CB05",
"h      c #006803",
"i      c #000E00",
"j      c #00A304",
"k      c #00AD04",
"l      c #006F03",
"m      c #000F00",
"n      c #00B804",
"o      c #007A03",
"p      c #001000",
"q      c #008E03",
"                ",
"        ..      ",
"        .+@     ",
"        .#$%    ",
".... ....&*=-   ",
".;;. .;>,')'!~  ",
".{{. .{]]]]^/(_ ",
".::. .:<<<<<[}|1",
".22. .2333334567",
".88. .899990abc ",
".dd. .de6fgfhi  ",
".... ....jklm   ",
"        .nop    ",
"        .qp     ",
"        ..      ",
"                "};
