/* XPM */
static char * no_xpm[] = {
"16 16 65 1",
"       c None",
".      c #000000",
"+      c #5A3435",
"@      c #BF7F80",
"#      c #BF8081",
"$      c #562929",
"%      c #A54344",
"&      c #911A1C",
"*      c #850002",
"=      c #582929",
"-      c #AA4344",
";      c #981A1C",
">      c #8C0002",
",      c #551B1C",
"'      c #B04345",
")      c #9F1A1D",
"!      c #940003",
"~      c #926667",
"{      c #661C1E",
"]      c #A00407",
"^      c #A81A1D",
"/      c #9E0003",
"(      c #B86B6D",
"_      c #FFFFFF",
":      c #E2D5D5",
"<      c #581C1D",
"[      c #9C0003",
"}      c #A90003",
"|      c #C24C4E",
"1      c #F4DDDE",
"2      c #E9DADA",
"3      c #A70003",
"4      c #B40003",
"5      c #C4383A",
"6      c #F5DEDE",
"7      c #B10004",
"8      c #BF0004",
"9      c #9A1C1F",
"0      c #F0D9D9",
"a      c #BB0004",
"b      c #CA0004",
"c      c #971C1F",
"d      c #ECD5D5",
"e      c #FAE6E6",
"f      c #AF0003",
"g      c #BE0004",
"h      c #D50004",
"i      c #E87779",
"j      c #FBE5E5",
"k      c #EA7E80",
"l      c #470001",
"m      c #930003",
"n      c #C70004",
"o      c #E00004",
"p      c #F5A7A9",
"q      c #EC6568",
"r      c #3F0001",
"s      c #990003",
"t      c #D00004",
"u      c #EA0004",
"v      c #410001",
"w      c #D70004",
"x      c #F20005",
"y      c #370001",
"z      c #560002",
"    ........    ",
"   .+@####@+.   ",
"  .$%&****&%$.  ",
" .=-;>>>>>>;-=. ",
".,')!~{!!{~!)',.",
".]^/(_:<<:_(/^].",
".[}}|1_22_1|}}[.",
".344456__654443.",
".788890__098887.",
".abbcd_ee_dcbba.",
".fghi_jkkj_ihgf.",
".lmnopqooqponml.",
" .rstuuuuuutsr. ",
"  .v/wxxxxw/v.  ",
"   .yzzzzzzy.   ",
"    ........    "};
