/* XPM */
static char * previous_xpm[] = {
"16 16 33 1",
"       c None",
".      c #000000",
"+      c #1F120A",
"@      c #FF9A59",
"#      c #DE7E42",
"$      c #FF7A26",
"%      c #DE8247",
"&      c #FF8335",
"*      c #FF8232",
"=      c #FF6A0C",
"-      c #FF9D5E",
";      c #FFB382",
">      c #FF9755",
",      c #FF6605",
"'      c #EC5E05",
")      c #1F0F05",
"!      c #DE691E",
"~      c #FF7F2E",
"{      c #180A00",
"]      c #A44103",
"^      c #CB5104",
"/      c #F86305",
"(      c #120700",
"_      c #7E3203",
":      c #C54F04",
"<      c #8C3803",
"[      c #582302",
"}      c #893703",
"|      c #B94A04",
"1      c #833403",
"2      c #C75004",
"3      c #110700",
"4      c #933B03",
"                ",
"      ..        ",
"     +@.        ",
"    +#$.        ",
"   +%&*.... ....",
"  +%&=&-;>. .>>.",
" +%&=,,,,'. .''.",
")!~=,,,,,'. .''.",
"{]^/,,,,,'. .''.",
" (_:/,,,,'. .''.",
"  (_:/:<[}. .}}.",
"   (_:|.... ....",
"    (12.        ",
"     34.        ",
"      ..        ",
"                "};
