/* XPM */
static char * yes_xpm[] = {
"16 16 4 1",
" 	c None",
".	c #000000",
"+	c #7FDB82",
"@	c #1CA525",
"              . ",
"             .+.",
"            .+@.",
"            .+@.",
"           .+@. ",
"           .+@. ",
"   .      .+@.  ",
"  .+.     .+@.  ",
" .+@@.   .+@.   ",
"  .@@@.  .+@.   ",
"   .@@@..+@.    ",
"    .@@@+@@.    ",
"     .@@@@.     ",
"      .@@@.     ",
"       .@.      ",
"        .       "};
